<mxfile host="app.diagrams.net" modified="2024-02-19T13:10:06.577Z" agent="Mozilla/5.0 (Macintosh; Intel Mac OS X 10_15_7) AppleWebKit/537.36 (KHTML, like Gecko) Chrome/121.0.0.0 Safari/537.36" version="23.1.5" etag="WigL1YvQey9tC6OGPkjW" type="github">
  <diagram name="Page-1" id="AMW8_4-o2xe6jq-Z0VYH">
    <mxGraphModel>
      <root>
        <mxCell id="0" />
        <mxCell id="1" parent="0" />
      </root>
    </mxGraphModel>
  </diagram>
</mxfile>
